<svg width="160" height="30" fill="none" viewBox="0 0 160 30" xmlns="http://www.w3.org/2000/svg" class="logo__1Odcz"><g fill="currentColor"><path d="M20.55 6.606V9.85a11.743 11.743 0 100 15.527v3.98h2.936V6.606H20.55zm-8.807 19.816a8.807 8.807 0 110-17.614 8.807 8.807 0 010 17.614zM38.164 5.872a10.246 10.246 0 00-7.34 3.086V6.606H27.89v22.752h2.936V16.147a7.34 7.34 0 0114.678 0v13.21h2.936v-13.21A10.275 10.275 0 0038.164 5.872zM63.119 5.872a10.246 10.246 0 00-7.34 3.086V6.606h-2.935v22.752h2.935V16.147a7.34 7.34 0 0114.68 0v13.21h2.935v-13.21A10.276 10.276 0 0063.12 5.872zM88.808 5.872a11.743 11.743 0 100 23.485 11.743 11.743 0 000-23.485zm0 20.55a8.807 8.807 0 110-17.614 8.807 8.807 0 010 17.614zM134.495 19.083h2.019v-1.468A11.746 11.746 0 00125.892 5.93a11.742 11.742 0 109.767 16.088H132.4a8.803 8.803 0 01-9.188 4.265 8.81 8.81 0 01-7.124-7.2h18.407zM124.77 8.807a8.809 8.809 0 018.683 7.34h-17.365a8.809 8.809 0 018.682-7.34zM143.854 0h-2.936v29.358h2.936V0zM151.192 0h-2.936v29.358h2.936V0zM159.999 24.954h-4.403v4.404h4.403v-4.404z"></path><path d="M38.164 5.872a10.246 10.246 0 00-7.34 3.086V6.606H27.89v22.752h2.936V16.147a7.34 7.34 0 0114.678 0v13.21h2.936v-13.21A10.275 10.275 0 0038.164 5.872zM63.119 5.872a10.246 10.246 0 00-7.34 3.086V6.606h-2.935v22.752h2.935V16.147a7.34 7.34 0 0114.68 0v13.21h2.935v-13.21A10.276 10.276 0 0063.12 5.872zM107.156 8.807h4.404V5.872h-4.404V0h-2.935v23.486a5.872 5.872 0 005.871 5.872h1.468v-2.936h-1.468a2.938 2.938 0 01-2.936-2.936V8.807z"></path></g></svg>